<svg width="216" height="90" viewBox="0 0 216 90" fill="none" xmlns="http://www.w3.org/2000/svg">
<path fill-rule="evenodd" clip-rule="evenodd" d="M46 81.3242H137C137.515 81.3242 138.017 81.2686 138.5 81.1631C138.983 81.2686 139.485 81.3242 140 81.3242H192C195.866 81.3242 199 78.1902 199 74.3242C199 70.4582 195.866 67.3242 192 67.3242H186C182.134 67.3242 179 64.1902 179 60.3242C179 56.4582 182.134 53.3242 186 53.3242H205C208.866 53.3242 212 50.1902 212 46.3242C212 42.4582 208.866 39.3242 205 39.3242H183C186.866 39.3242 190 36.1902 190 32.3242C190 28.4582 186.866 25.3242 183 25.3242H119C122.866 25.3242 126 22.1902 126 18.3242C126 14.4582 122.866 11.3242 119 11.3242H62C58.134 11.3242 55 14.4582 55 18.3242C55 22.1902 58.134 25.3242 62 25.3242H22C18.134 25.3242 15 28.4582 15 32.3242C15 36.1902 18.134 39.3242 22 39.3242H47C50.866 39.3242 54 42.4582 54 46.3242C54 50.1902 50.866 53.3242 47 53.3242H7C3.13401 53.3242 0 56.4582 0 60.3242C0 64.1902 3.13401 67.3242 7 67.3242H46C42.134 67.3242 39 70.4582 39 74.3242C39 78.1902 42.134 81.3242 46 81.3242ZM209 81.3242C212.866 81.3242 216 78.1902 216 74.3242C216 70.4582 212.866 67.3242 209 67.3242C205.134 67.3242 202 70.4582 202 74.3242C202 78.1902 205.134 81.3242 209 81.3242Z" fill="#F3F7FF"/>
<path fill-rule="evenodd" clip-rule="evenodd" d="M96.1186 59.6309C96.0404 60.1841 96 60.7494 96 61.3242C96 67.9517 101.373 73.3242 108 73.3242C114.627 73.3242 120 67.9517 120 61.3242C120 60.7494 119.96 60.1841 119.881 59.6309H149V86.3242C149 87.9811 147.657 89.3242 146 89.3242H70C68.3431 89.3242 67 87.9811 67 86.3242V59.6309H96.1186Z" fill="white"/>
<path fill-rule="evenodd" clip-rule="evenodd" d="M121 59.3242C121 66.5039 115.18 72.3242 108 72.3242C100.82 72.3242 95 66.5039 95 59.3242C95 59.0916 95.0061 58.8604 95.0182 58.6308H67L76.5604 30.3631C76.9726 29.1444 78.1159 28.3242 79.4023 28.3242H136.598C137.884 28.3242 139.027 29.1444 139.44 30.3631L149 58.6308H120.982C120.994 58.8604 121 59.0916 121 59.3242Z" fill="white"/>
<path fill-rule="evenodd" clip-rule="evenodd" d="M119.098 60.2788C119.098 65.8267 114.129 71.3242 108 71.3242C101.871 71.3242 96.9024 65.8267 96.9024 60.2788C96.9024 60.099 96.9077 58.9204 96.918 58.743H76L84.1614 38.8997C84.5132 37.958 85.4891 37.3242 86.5873 37.3242H129.413C130.511 37.3242 131.487 37.958 131.839 38.8997L140 58.743H119.082C119.092 58.9204 119.098 60.099 119.098 60.2788Z" fill="#E8F0FE"/>
<path fill-rule="evenodd" clip-rule="evenodd" d="M68.25 58.8365V85.3242C68.25 86.2907 69.0335 87.0742 70 87.0742H146C146.966 87.0742 147.75 86.2907 147.75 85.3242V58.8365L138.255 30.7635C138.015 30.0527 137.348 29.5742 136.598 29.5742H79.4023C78.6519 29.5742 77.985 30.0527 77.7446 30.7635L68.25 58.8365Z" stroke="#3559E0" stroke-width="2.5"/>
<path d="M81 58.3242C84.9366 58.3242 89.1849 58.3242 93.7449 58.3242C95.6212 58.3242 95.6212 59.6428 95.6212 60.3242C95.6212 66.9516 101.117 72.3242 107.897 72.3242C114.677 72.3242 120.173 66.9516 120.173 60.3242C120.173 59.6428 120.173 58.3242 122.05 58.3242H147M73.5737 58.3242H76H73.5737Z" stroke="#3559E0" stroke-width="2.5" stroke-linecap="round" stroke-linejoin="round"/>
<path d="M133.1 5.62695L122 18.0801M107.1 1.32422V18.0801V1.32422ZM81 5.62695L92.0996 18.0801L81 5.62695Z" stroke="#3559E0" stroke-width="2.5" stroke-linecap="round" stroke-linejoin="round"/>
</svg>
