<svg width="216" height="99" viewBox="0 0 216 99" fill="none" xmlns="http://www.w3.org/2000/svg">
<path fill-rule="evenodd" clip-rule="evenodd" d="M46 91.5092H137C137.515 91.5092 138.017 91.4536 138.5 91.3481C138.983 91.4536 139.485 91.5092 140 91.5092H192C195.866 91.5092 199 88.3752 199 84.5092C199 80.6432 195.866 77.5092 192 77.5092H186C182.134 77.5092 179 74.3752 179 70.5092C179 66.6432 182.134 63.5092 186 63.5092H205C208.866 63.5092 212 60.3752 212 56.5092C212 52.6432 208.866 49.5092 205 49.5092H183C186.866 49.5092 190 46.3752 190 42.5092C190 38.6432 186.866 35.5092 183 35.5092H119C122.866 35.5092 126 32.3752 126 28.5092C126 24.6432 122.866 21.5092 119 21.5092H62C58.134 21.5092 55 24.6432 55 28.5092C55 32.3752 58.134 35.5092 62 35.5092H22C18.134 35.5092 15 38.6432 15 42.5092C15 46.3752 18.134 49.5092 22 49.5092H47C50.866 49.5092 54 52.6432 54 56.5092C54 60.3752 50.866 63.5092 47 63.5092H7C3.13401 63.5092 0 66.6432 0 70.5092C0 74.3752 3.13401 77.5092 7 77.5092H46C42.134 77.5092 39 80.6432 39 84.5092C39 88.3752 42.134 91.5092 46 91.5092ZM209 91.5092C212.866 91.5092 216 88.3752 216 84.5092C216 80.6432 212.866 77.5092 209 77.5092C205.134 77.5092 202 80.6432 202 84.5092C202 88.3752 205.134 91.5092 209 91.5092Z" fill="#F3F7FF"/>
<path fill-rule="evenodd" clip-rule="evenodd" d="M75 97.5092C62.8497 97.5092 53 87.8833 53 76.0092C53 64.1351 62.8497 54.5092 75 54.5092C75.5167 54.5092 76.0292 54.5266 76.537 54.5609C76.1842 52.597 76 50.5746 76 48.5092C76 29.7315 91.2223 14.5092 110 14.5092C124.991 14.5092 137.716 24.2112 142.239 37.6787C143.31 37.5667 144.398 37.5092 145.5 37.5092C162.345 37.5092 176 50.9407 176 67.5092C176 83.2498 163.675 96.2365 148 97.4874V97.5092H91.5078H75ZM86.996 97.5092H80.0314H86.996Z" fill="white"/>
<path d="M86.996 97.5092H80.0314M75 97.5092C62.8497 97.5092 53 87.8833 53 76.0092C53 64.1351 62.8497 54.5092 75 54.5092C75.5167 54.5092 76.0292 54.5266 76.537 54.5609C76.1842 52.597 76 50.5746 76 48.5092C76 29.7315 91.2223 14.5092 110 14.5092C124.991 14.5092 137.716 24.2112 142.239 37.6787C143.31 37.5667 144.398 37.5092 145.5 37.5092C162.345 37.5092 176 50.9407 176 67.5092C176 83.2498 163.675 96.2365 148 97.4874V97.5092H91.5078H75Z" stroke="#3559E0" stroke-width="2.5" stroke-linecap="round"/>
<path fill-rule="evenodd" clip-rule="evenodd" d="M99.6123 21.8518C99.6123 54.075 128.633 80.6272 166 84.2121C161.317 89.9703 154.086 93.8767 145.847 94.4905V94.5092H78.7431C70.6013 94.5092 57 91.0789 57 76.0576C57 61.0362 67.5742 57.6059 78.7431 57.6059C79.218 57.6059 79.6891 57.6208 80.1559 57.6502C79.8316 55.9648 79.7746 54.2276 79.6623 52.4566C78.9038 40.4934 84.1229 25.4162 99.6304 20.5092C99.618 20.9565 99.6123 21.4036 99.6123 21.8518ZM110.116 72.2672C107.078 72.2672 104.614 74.7014 104.614 77.7041C104.614 80.7068 107.078 83.1411 110.116 83.1411C113.155 83.1411 115.618 80.7068 115.618 77.7041C115.618 74.7014 113.155 72.2672 110.116 72.2672Z" fill="#E8F0FE"/>
<path d="M110.5 83.5092C113.538 83.5092 116 81.0468 116 78.0092C116 74.9717 113.538 72.5092 110.5 72.5092C107.462 72.5092 105 74.9717 105 78.0092C105 81.0468 107.462 83.5092 110.5 83.5092Z" stroke="#3559E0" stroke-width="2.5"/>
<path d="M95 66.5092L102 61.0161L95 55.7868" stroke="#3559E0" stroke-width="2.5" stroke-linecap="round" stroke-linejoin="round"/>
<path d="M126 66.5092L119 61.0161L126 55.7868" stroke="#3559E0" stroke-width="2.5" stroke-linecap="round" stroke-linejoin="round"/>
<path d="M120 24.5092C126.509 26.2318 131.648 31.3221 133.44 37.8024" stroke="#3559E0" stroke-width="2.5" stroke-linecap="round"/>
<path d="M141 7.50922C142.657 7.50922 144 6.16607 144 4.50922C144 2.85236 142.657 1.50922 141 1.50922C139.343 1.50922 138 2.85236 138 4.50922C138 6.16607 139.343 7.50922 141 7.50922Z" stroke="#3559E0" stroke-width="2"/>
<path d="M172 23.5092C173.657 23.5092 175 22.1661 175 20.5092C175 18.8524 173.657 17.5092 172 17.5092C170.343 17.5092 169 18.8524 169 20.5092C169 22.1661 170.343 23.5092 172 23.5092Z" fill="#3559E0"/>
<path d="M148.757 15.2665L157.116 23.6248M157.243 15.2665L148.884 23.6248L157.243 15.2665Z" stroke="#3559E0" stroke-width="2.5" stroke-linecap="round" stroke-linejoin="round"/>
<path d="M54.4038 33.1054L60.4038 39.1054M60.4038 33.1054L54.4038 39.1054L60.4038 33.1054Z" stroke="#3559E0" stroke-width="2.5" stroke-linecap="round" stroke-linejoin="round"/>
<path d="M68 26.5092C69.6569 26.5092 71 25.1661 71 23.5092C71 21.8524 69.6569 20.5092 68 20.5092C66.3431 20.5092 65 21.8524 65 23.5092C65 25.1661 66.3431 26.5092 68 26.5092Z" fill="#3559E0"/>
</svg>
