<svg width="217" height="80" viewBox="0 0 217 80" fill="none" xmlns="http://www.w3.org/2000/svg">
<path fill-rule="evenodd" clip-rule="evenodd" d="M46.0249 78.793H137.025C137.54 78.793 138.042 78.7374 138.525 78.6319C139.008 78.7374 139.51 78.793 140.025 78.793H192.025C195.891 78.793 199.025 75.659 199.025 71.793C199.025 67.927 195.891 64.793 192.025 64.793H186.025C182.159 64.793 179.025 61.659 179.025 57.793C179.025 53.927 182.159 50.793 186.025 50.793H205.025C208.891 50.793 212.025 47.659 212.025 43.793C212.025 39.927 208.891 36.793 205.025 36.793H183.025C186.891 36.793 190.025 33.659 190.025 29.793C190.025 25.927 186.891 22.793 183.025 22.793H119.025C122.891 22.793 126.025 19.659 126.025 15.793C126.025 11.927 122.891 8.79297 119.025 8.79297H62.0249C58.1589 8.79297 55.0249 11.927 55.0249 15.793C55.0249 19.659 58.1589 22.793 62.0249 22.793H22.0249C18.1589 22.793 15.0249 25.927 15.0249 29.793C15.0249 33.659 18.1589 36.793 22.0249 36.793H47.0249C50.8909 36.793 54.0249 39.927 54.0249 43.793C54.0249 47.659 50.8909 50.793 47.0249 50.793H7.0249C3.15891 50.793 0.0249023 53.927 0.0249023 57.793C0.0249023 61.659 3.15891 64.793 7.0249 64.793H46.0249C42.1589 64.793 39.0249 67.927 39.0249 71.793C39.0249 75.659 42.1589 78.793 46.0249 78.793ZM209.025 78.793C212.891 78.793 216.025 75.659 216.025 71.793C216.025 67.927 212.891 64.793 209.025 64.793C205.159 64.793 202.025 67.927 202.025 71.793C202.025 75.659 205.159 78.793 209.025 78.793Z" fill="#F3F7FF"/>
<path fill-rule="evenodd" clip-rule="evenodd" d="M52.9774 15.3104L136.002 2.01863C137.638 1.75672 139.177 2.87065 139.439 4.50668C139.439 4.50995 139.44 4.51323 139.44 4.5165L147.562 56.3486C147.818 57.9816 146.705 59.514 145.072 59.7753L62.0476 73.067C60.4116 73.3289 58.873 72.215 58.6111 70.579C58.6106 70.5757 58.61 70.5724 58.6095 70.5691L50.4878 18.737C50.2319 17.104 51.3452 15.5717 52.9774 15.3104Z" fill="white"/>
<path d="M66.3697 72.2164L63.1864 72.7411C60.9997 73.1015 58.9463 71.549 58.5999 69.2735L51.0748 19.8321C50.7285 17.5566 52.2204 15.4198 54.4071 15.0594L134.583 1.84492C136.77 1.48459 138.823 3.03707 139.17 5.31254C139.507 7.52962 139.776 9.29653 139.976 10.6133M140.548 14.3687C140.73 15.5614 140.888 16.6059 141.025 17.5021" stroke="#1F64E7" stroke-width="2.5" stroke-linecap="round"/>
<path fill-rule="evenodd" clip-rule="evenodd" d="M57.0019 17.5852L132.762 5.75412C134.394 5.49927 135.925 6.61155 136.187 8.24239L143.547 54.0614C143.81 55.6973 142.697 57.2365 141.061 57.4993C141.056 57.5 141.052 57.5006 141.048 57.5013L65.2878 69.3324C63.6559 69.5872 62.1249 68.4749 61.8629 66.8441L54.5028 21.0251C54.24 19.3892 55.3531 17.85 56.989 17.5872C56.9933 17.5866 56.9976 17.5859 57.0019 17.5852Z" fill="#E8F0FE"/>
<path d="M153.775 22.043H75.2749C73.0658 22.043 71.2749 23.8338 71.2749 26.043V74.543C71.2749 76.7521 73.0658 78.543 75.2749 78.543H153.775C155.984 78.543 157.775 76.7521 157.775 74.543V26.043C157.775 23.8338 155.984 22.043 153.775 22.043Z" fill="white" stroke="#1F64E7" stroke-width="2.5"/>
<path d="M156.525 33.793H72.5249V47.793H156.525V33.793Z" fill="#E8F0FE"/>
<path d="M86.3139 33.793H79.1175M157.196 33.793H91.3558H157.196ZM151.196 46.793H72.3564H151.196ZM108.087 65.793H79.7795H108.087Z" stroke="#1F64E7" stroke-width="2.5" stroke-linecap="round" stroke-linejoin="round"/>
</svg>
